<?xml version="1.0" encoding="utf-8"?>
<!-- Generator: Adobe Illustrator 24.0.1, SVG Export Plug-In . SVG Version: 6.00 Build 0)  -->
<svg version="1.1" id="MAIN_GRAPHICS_copy" xmlns="http://www.w3.org/2000/svg" xmlns:xlink="http://www.w3.org/1999/xlink" x="0px"
	 y="0px" width="820px" height="485.749px" viewBox="0 0 820 485.749" style="enable-background:new 0 0 820 485.749;"
	 xml:space="preserve">
<style type="text/css">
	.st0{opacity:0.3;fill:#00A8D6;enable-background:new    ;}
	.st1{fill:#333333;}
	.st2{fill:#FFFFFF;}
	.st3{fill:#4A4B4C;}
	.st4{fill:url(#Exclusion_12_1_);}
	.st5{fill:url(#SVGID_1_);}
</style>
<path class="st0" d="M409.903,43.095c-112.009,0-202.81,90.801-202.81,202.81s90.801,202.81,202.81,202.81
	s202.81-90.801,202.81-202.81S521.912,43.095,409.903,43.095z M409.903,413.6c-92.615,0-167.694-75.079-167.694-167.694
	s75.08-167.694,167.694-167.694s167.694,75.079,167.694,167.694S502.518,413.6,409.903,413.6z"/>
<circle class="st1" cx="408.37" cy="245.906" r="79.386"/>
<g>
	<circle class="st2" cx="578.893" cy="310.742" r="61.587"/>
</g>
<g>
	<circle class="st2" cx="578.893" cy="172.996" r="61.587"/>
</g>
<g>
	<circle class="st2" cx="240.721" cy="310.742" r="61.587"/>
</g>
<g>
	<circle class="st2" cx="240.721" cy="172.996" r="61.587"/>
</g>
<g>
	<path class="st1" d="M140.99,57.789h1.657v9.432h-1.657V57.789z"/>
	<path class="st1" d="M146,57.789h1.536l5.053,6.521v-6.521h1.63v9.432h-1.388l-5.201-6.71v6.71H146V57.789z"/>
	<path class="st1" d="M157.476,57.789h3.517c2.964,0,5.012,2.035,5.012,4.689v0.027c0,2.654-2.048,4.716-5.012,4.716h-3.517V57.789z
		 M159.133,59.298v6.414h1.859c1.981,0,3.274-1.334,3.274-3.18v-0.027c0-1.846-1.293-3.207-3.274-3.207
		C160.992,59.298,159.133,59.298,159.133,59.298z"/>
	<path class="st1" d="M168.695,63.219v-5.43h1.657v5.363c0,1.751,0.903,2.681,2.385,2.681c1.469,0,2.372-0.876,2.372-2.614v-5.43
		h1.657v5.349c0,2.816-1.59,4.231-4.056,4.231C170.258,67.369,168.695,65.954,168.695,63.219z"/>
	<path class="st1" d="M179.242,65.846l0.997-1.186c0.903,0.782,1.819,1.226,2.978,1.226c1.024,0,1.67-0.485,1.67-1.186v-0.027
		c0-0.674-0.377-1.038-2.129-1.442c-2.007-0.485-3.139-1.078-3.139-2.816V60.39c0-1.617,1.348-2.735,3.22-2.735
		c1.375,0,2.466,0.418,3.422,1.186l-0.889,1.253c-0.849-0.633-1.698-0.97-2.56-0.97c-0.97,0-1.536,0.499-1.536,1.118v0.027
		c0,0.728,0.431,1.051,2.25,1.482c1.994,0.485,3.018,1.199,3.018,2.762v0.027c0,1.765-1.388,2.816-3.368,2.816
		C181.734,67.355,180.373,66.857,179.242,65.846z"/>
	<path class="st1" d="M191.446,59.325h-2.991v-1.536h7.653v1.536h-2.991v7.896h-1.67v-7.896H191.446z"/>
	<path class="st1" d="M198.691,57.789h4.204c1.186,0,2.115,0.351,2.722,0.943c0.499,0.512,0.781,1.212,0.781,2.035v0.027
		c0,1.549-0.93,2.479-2.237,2.856l2.547,3.57h-1.967l-2.317-3.288h-2.075v3.288h-1.657v-9.431H198.691z M202.773,62.464
		c1.186,0,1.94-0.62,1.94-1.576v-0.027c0-1.011-0.728-1.563-1.954-1.563h-2.412v3.166H202.773z"/>
	<path class="st1" d="M209.359,57.789h1.657v9.432h-1.657V57.789z"/>
	<path class="st1" d="M217.711,57.722h1.536l4.15,9.499h-1.751l-0.957-2.277h-4.46l-0.97,2.277h-1.698L217.711,57.722z
		 M220.082,63.475l-1.63-3.772l-1.617,3.772H220.082z"/>
	<path class="st1" d="M225.845,57.789h1.657v7.923h4.958v1.509h-6.616v-9.432H225.845z"/>
	<path class="st1" d="M239.988,57.789h1.657v9.432h-1.657V57.789z"/>
	<path class="st1" d="M244.58,62.532v-0.027c0-2.654,2.048-4.877,4.945-4.877s4.918,2.196,4.918,4.851v0.027
		c0,2.654-2.048,4.877-4.945,4.877C246.601,67.382,244.58,65.186,244.58,62.532z M252.705,62.532v-0.027
		c0-1.833-1.334-3.355-3.207-3.355s-3.18,1.496-3.18,3.328v0.027c0,1.833,1.333,3.341,3.207,3.341
		C251.397,65.846,252.705,64.364,252.705,62.532z"/>
	<path class="st1" d="M259.087,59.325h-2.991v-1.536h7.653v1.536h-2.991v7.896h-1.67v-7.896H259.087z"/>
</g>
<g>
	<path class="st1" d="M95.253,179.478l0.997-1.186c0.903,0.782,1.819,1.226,2.978,1.226c1.024,0,1.67-0.485,1.67-1.186v-0.027
		c0-0.674-0.377-1.038-2.128-1.442c-2.008-0.485-3.14-1.078-3.14-2.816v-0.027c0-1.617,1.348-2.735,3.22-2.735
		c1.375,0,2.466,0.418,3.422,1.186l-0.889,1.253c-0.849-0.633-1.698-0.97-2.56-0.97c-0.97,0-1.536,0.499-1.536,1.118v0.027
		c0,0.728,0.431,1.051,2.25,1.482c1.994,0.485,3.018,1.199,3.018,2.762v0.027c0,1.765-1.388,2.816-3.368,2.816
		C97.745,180.987,96.384,180.488,95.253,179.478z"/>
	<path class="st1" d="M105.341,171.42h6.993v1.482h-5.336v2.452h4.729v1.482h-4.729v2.533h5.403v1.482h-7.061L105.341,171.42
		L105.341,171.42z"/>
	<path class="st1" d="M115.201,171.42h1.536l5.053,6.521v-6.521h1.63v9.432h-1.388l-5.201-6.71v6.71h-1.63V171.42z"/>
	<path class="st1" d="M126.043,179.478l0.997-1.186c0.903,0.782,1.819,1.226,2.978,1.226c1.024,0,1.67-0.485,1.67-1.186v-0.027
		c0-0.674-0.377-1.038-2.129-1.442c-2.007-0.485-3.139-1.078-3.139-2.816v-0.027c0-1.617,1.348-2.735,3.22-2.735
		c1.375,0,2.466,0.418,3.422,1.186l-0.889,1.253c-0.849-0.633-1.698-0.97-2.56-0.97c-0.97,0-1.536,0.499-1.536,1.118v0.027
		c0,0.728,0.431,1.051,2.25,1.482c1.994,0.485,3.018,1.199,3.018,2.762v0.027c0,1.765-1.388,2.816-3.368,2.816
		C128.536,180.987,127.175,180.488,126.043,179.478z"/>
	<path class="st1" d="M135.714,176.163v-0.027c0-2.654,2.048-4.877,4.945-4.877s4.918,2.196,4.918,4.851v0.027
		c0,2.654-2.048,4.877-4.945,4.877C137.735,181.014,135.714,178.817,135.714,176.163z M143.839,176.163v-0.027
		c0-1.833-1.334-3.355-3.207-3.355s-3.18,1.496-3.18,3.328v0.027c0,1.833,1.333,3.341,3.207,3.341
		C142.532,179.478,143.839,177.996,143.839,176.163z"/>
	<path class="st1" d="M148.416,171.42h4.204c1.186,0,2.115,0.351,2.722,0.943c0.499,0.512,0.781,1.212,0.781,2.035v0.027
		c0,1.549-0.93,2.479-2.237,2.856l2.547,3.57h-1.967l-2.317-3.288h-2.075v3.288h-1.657v-9.431H148.416z M152.498,176.096
		c1.186,0,1.94-0.62,1.94-1.576v-0.027c0-1.011-0.728-1.563-1.954-1.563h-2.412v3.166H152.498z"/>
	<path class="st1" d="M158.356,179.478l0.997-1.186c0.903,0.782,1.819,1.226,2.978,1.226c1.024,0,1.67-0.485,1.67-1.186v-0.027
		c0-0.674-0.377-1.038-2.129-1.442c-2.007-0.485-3.139-1.078-3.139-2.816v-0.027c0-1.617,1.348-2.735,3.22-2.735
		c1.375,0,2.466,0.418,3.422,1.186l-0.889,1.253c-0.849-0.633-1.698-0.97-2.56-0.97c-0.97,0-1.536,0.499-1.536,1.118v0.027
		c0,0.728,0.431,1.051,2.25,1.482c1.994,0.485,3.018,1.199,3.018,2.762v0.027c0,1.765-1.388,2.816-3.368,2.816
		C160.848,180.987,159.487,180.488,158.356,179.478z"/>
</g>
<g>
	<path class="st1" d="M67.169,304.985h1.765l2.87,4.46l2.87-4.46h1.765v9.432h-1.657v-6.764l-2.978,4.446H71.75l-2.95-4.419v6.737
		h-1.63v-9.432H67.169z"/>
	<path class="st1" d="M79.278,309.728v-0.027c0-2.654,2.048-4.877,4.945-4.877s4.918,2.196,4.918,4.851v0.027
		c0,2.654-2.048,4.877-4.945,4.877C81.299,314.578,79.278,312.382,79.278,309.728z M87.403,309.728v-0.027
		c0-1.833-1.334-3.355-3.207-3.355s-3.18,1.496-3.18,3.328v0.027c0,1.833,1.333,3.341,3.207,3.341
		C86.096,313.042,87.403,311.56,87.403,309.728z"/>
	<path class="st1" d="M91.979,304.985h1.536l5.053,6.521v-6.521h1.63v9.432H98.81l-5.201-6.71v6.71h-1.63V304.985z"/>
	<path class="st1" d="M103.55,304.985h1.657v9.432h-1.657V304.985z"/>
	<path class="st1" d="M110.878,306.521h-2.991v-1.536h7.653v1.536h-2.991v7.896h-1.67v-7.896H110.878z"/>
	<path class="st1" d="M117.194,309.728v-0.027c0-2.654,2.048-4.877,4.945-4.877s4.918,2.196,4.918,4.851v0.027
		c0,2.654-2.048,4.877-4.945,4.877C119.215,314.578,117.194,312.382,117.194,309.728z M125.318,309.728v-0.027
		c0-1.833-1.334-3.355-3.207-3.355s-3.18,1.496-3.18,3.328v0.027c0,1.833,1.333,3.341,3.207,3.341
		C124.011,313.042,125.318,311.56,125.318,309.728z"/>
	<path class="st1" d="M129.896,304.985h4.204c1.186,0,2.115,0.351,2.722,0.943c0.499,0.512,0.781,1.212,0.781,2.035v0.027
		c0,1.549-0.93,2.479-2.236,2.856l2.546,3.57h-1.967l-2.317-3.288h-2.075v3.288h-1.657v-9.431H129.896z M133.978,309.66
		c1.186,0,1.94-0.62,1.94-1.576v-0.027c0-1.011-0.728-1.563-1.954-1.563h-2.412v3.166H133.978z"/>
	<path class="st1" d="M140.563,304.985h1.657v9.432h-1.657V304.985z"/>
	<path class="st1" d="M145.573,304.985h1.536l5.053,6.521v-6.521h1.63v9.432h-1.388l-5.201-6.71v6.71h-1.63L145.573,304.985
		L145.573,304.985z"/>
	<path class="st1" d="M156.631,309.728v-0.027c0-2.641,2.021-4.877,4.864-4.877c1.644,0,2.654,0.458,3.625,1.28l-1.051,1.253
		c-0.728-0.62-1.442-1.011-2.641-1.011c-1.738,0-3.058,1.522-3.058,3.328v0.027c0,1.94,1.28,3.369,3.207,3.369
		c0.889,0,1.698-0.283,2.277-0.714v-1.765h-2.412v-1.441h4.015v3.961c-0.93,0.795-2.264,1.469-3.934,1.469
		C158.572,314.578,156.631,312.477,156.631,309.728z"/>
	<path class="st1" d="M118.515,322.684h-2.991v-1.536h7.653v1.536h-2.991v7.896h-1.67v-7.896H118.515z"/>
	<path class="st1" d="M124.831,325.891v-0.027c0-2.654,2.048-4.877,4.945-4.877s4.918,2.196,4.918,4.851v0.027
		c0,2.654-2.048,4.877-4.945,4.877C126.852,330.741,124.831,328.545,124.831,325.891z M132.956,325.891v-0.027
		c0-1.833-1.334-3.355-3.207-3.355s-3.18,1.496-3.18,3.328v0.027c0,1.833,1.333,3.341,3.207,3.341
		C131.648,329.205,132.956,327.723,132.956,325.891z"/>
	<path class="st1" d="M137.115,325.891v-0.027c0-2.654,2.048-4.877,4.945-4.877s4.918,2.196,4.918,4.851v0.027
		c0,2.654-2.048,4.877-4.945,4.877C139.136,330.741,137.115,328.545,137.115,325.891z M145.24,325.891v-0.027
		c0-1.833-1.334-3.355-3.207-3.355s-3.18,1.496-3.18,3.328v0.027c0,1.833,1.333,3.341,3.207,3.341
		C143.933,329.205,145.24,327.723,145.24,325.891z"/>
	<path class="st1" d="M149.816,321.148h1.657v7.922h4.958v1.509h-6.616L149.816,321.148L149.816,321.148z"/>
	<path class="st1" d="M158.356,329.205l0.997-1.186c0.903,0.782,1.819,1.226,2.978,1.226c1.024,0,1.67-0.485,1.67-1.186v-0.027
		c0-0.674-0.377-1.038-2.129-1.442c-2.007-0.485-3.139-1.078-3.139-2.816v-0.027c0-1.617,1.348-2.735,3.22-2.735
		c1.375,0,2.466,0.418,3.422,1.186l-0.889,1.253c-0.849-0.633-1.698-0.97-2.56-0.97c-0.97,0-1.536,0.499-1.536,1.118v0.027
		c0,0.728,0.431,1.051,2.25,1.482c1.994,0.485,3.018,1.199,3.018,2.762v0.027c0,1.765-1.388,2.816-3.368,2.816
		C160.848,330.714,159.487,330.216,158.356,329.205z"/>
</g>
<g>
	<path class="st1" d="M163.229,418.94h1.536l4.15,9.499h-1.751l-0.957-2.277h-4.46l-0.97,2.277h-1.698L163.229,418.94z
		 M165.6,424.693l-1.63-3.772l-1.617,3.772H165.6z"/>
	<path class="st1" d="M170.878,424.438v-5.43h1.657v5.362c0,1.752,0.903,2.682,2.385,2.682c1.469,0,2.372-0.876,2.372-2.614v-5.43
		h1.657v5.35c0,2.815-1.59,4.23-4.056,4.23C172.441,428.588,170.878,427.173,170.878,424.438z"/>
	<path class="st1" d="M184.375,420.544h-2.991v-1.536h7.653v1.536h-2.991v7.896h-1.67v-7.896H184.375z"/>
	<path class="st1" d="M190.691,423.751v-0.027c0-2.654,2.048-4.877,4.945-4.877s4.918,2.196,4.918,4.851v0.026
		c0,2.654-2.048,4.878-4.945,4.878C192.712,428.602,190.691,426.405,190.691,423.751z M198.816,423.751v-0.027
		c0-1.832-1.334-3.354-3.207-3.354s-3.18,1.495-3.18,3.328v0.026c0,1.832,1.333,3.342,3.207,3.342
		C197.509,427.065,198.816,425.583,198.816,423.751z"/>
	<path class="st1" d="M203.393,419.008h1.765l2.87,4.46l2.87-4.46h1.765v9.432h-1.657v-6.764l-2.978,4.446h-0.054l-2.951-4.419
		v6.736h-1.63L203.393,419.008L203.393,419.008z"/>
	<path class="st1" d="M219.261,418.94h1.536l4.15,9.499h-1.751l-0.957-2.277h-4.46l-0.97,2.277h-1.698L219.261,418.94z
		 M221.632,424.693l-1.63-3.772l-1.617,3.772H221.632z"/>
	<path class="st1" d="M228.5,420.544h-2.991v-1.536h7.653v1.536h-2.991v7.896h-1.67v-7.896H228.5z"/>
	<path class="st1" d="M235.84,419.008h1.657v9.432h-1.657V419.008z"/>
	<path class="st1" d="M240.433,423.751v-0.027c0-2.654,2.048-4.877,4.945-4.877s4.918,2.196,4.918,4.851v0.026
		c0,2.654-2.048,4.878-4.945,4.878S240.433,426.405,240.433,423.751z M248.558,423.751v-0.027c0-1.832-1.334-3.354-3.207-3.354
		s-3.18,1.495-3.18,3.328v0.026c0,1.832,1.333,3.342,3.207,3.342C247.25,427.065,248.558,425.583,248.558,423.751z"/>
	<path class="st1" d="M253.134,419.008h1.536l5.053,6.521v-6.521h1.63v9.432h-1.388l-5.201-6.71v6.71h-1.63L253.134,419.008
		L253.134,419.008z"/>
</g>
<g>
	<path class="st1" d="M555.92,427.064l0.997-1.186c0.903,0.781,1.819,1.226,2.978,1.226c1.024,0,1.671-0.485,1.671-1.186v-0.027
		c0-0.673-0.377-1.037-2.129-1.441c-2.007-0.485-3.139-1.078-3.139-2.815v-0.027c0-1.617,1.347-2.735,3.22-2.735
		c1.374,0,2.466,0.418,3.422,1.186l-0.889,1.253c-0.849-0.633-1.698-0.97-2.561-0.97c-0.97,0-1.535,0.499-1.535,1.118v0.027
		c0,0.728,0.431,1.051,2.25,1.481c1.994,0.485,3.018,1.199,3.018,2.763v0.026c0,1.766-1.388,2.816-3.368,2.816
		C558.413,428.573,557.052,428.074,555.92,427.064z"/>
	<path class="st1" d="M569.147,418.939h1.536l4.15,9.499h-1.752l-0.957-2.277h-4.459l-0.971,2.277h-1.697L569.147,418.939z
		 M571.52,424.692l-1.631-3.772l-1.616,3.772H571.52z"/>
	<path class="st1" d="M577.283,419.007h7.02v1.509h-5.362v2.574h4.756v1.509h-4.756v3.84h-1.657v-9.432H577.283z"/>
	<path class="st1" d="M586.954,419.007h6.992v1.482h-5.335v2.452h4.729v1.482h-4.729v2.532h5.402v1.482h-7.06v-9.43H586.954z"/>
	<path class="st1" d="M599.131,420.543h-2.991v-1.536h7.653v1.536h-2.991v7.896h-1.671L599.131,420.543L599.131,420.543z"/>
	<path class="st1" d="M609.151,424.72l-3.746-5.713h1.968L610,423.17l2.668-4.163h1.899l-3.745,5.673v3.759h-1.671V424.72z"/>
</g>
<g>
	<path class="st1" d="M662.36,317.323l-1.132-1.01c-0.795,0.552-1.766,0.889-2.87,0.889c-2.896,0-4.918-2.196-4.918-4.851v-0.027
		c0-2.654,2.048-4.877,4.944-4.877c2.897,0,4.918,2.196,4.918,4.851v0.027c0,1.064-0.35,2.075-0.956,2.897l1.077,0.916
		L662.36,317.323z M660.016,315.234l-1.631-1.388l1.064-1.212l1.657,1.509c0.297-0.512,0.459-1.118,0.459-1.792v-0.027
		c0-1.833-1.334-3.355-3.207-3.355s-3.18,1.496-3.18,3.328v0.027c0,1.833,1.334,3.341,3.206,3.341
		C659.005,315.666,659.558,315.504,660.016,315.234z"/>
	<path class="st1" d="M665.994,313.039v-5.43h1.657v5.363c0,1.751,0.902,2.681,2.385,2.681c1.469,0,2.371-0.876,2.371-2.614v-5.43
		h1.657v5.349c0,2.816-1.59,4.231-4.056,4.231C667.557,317.188,665.994,315.773,665.994,313.039z"/>
	<path class="st1" d="M680.178,307.541h1.536l4.15,9.499h-1.752l-0.957-2.277h-4.459l-0.971,2.277h-1.697L680.178,307.541z
		 M682.55,313.294l-1.631-3.772l-1.616,3.772H682.55z"/>
	<path class="st1" d="M688.312,307.608h1.657v7.923h4.958v1.509h-6.615V307.608z"/>
	<path class="st1" d="M697.579,307.608h1.657v9.432h-1.657V307.608z"/>
	<path class="st1" d="M704.907,309.145h-2.991v-1.536h7.652v1.536h-2.99v7.896h-1.671L704.907,309.145L704.907,309.145z"/>
	<path class="st1" d="M714.928,313.321l-3.746-5.713h1.968l2.627,4.164l2.668-4.164h1.899l-3.745,5.672v3.759h-1.671
		L714.928,313.321L714.928,313.321z"/>
</g>
<g>
	<path class="st1" d="M653.951,153.639h1.657v9.432h-1.657V153.639z"/>
	<path class="st1" d="M658.962,153.639h1.536l5.052,6.521v-6.521h1.631v9.432h-1.388l-5.201-6.71v6.71h-1.63V153.639z"/>
	<path class="st1" d="M670.438,153.639h3.517c2.964,0,5.012,2.035,5.012,4.689v0.027c0,2.654-2.048,4.716-5.012,4.716h-3.517
		V153.639z M672.095,155.148v6.414h1.859c1.98,0,3.273-1.334,3.273-3.18v-0.027c0-1.846-1.293-3.207-3.273-3.207L672.095,155.148
		L672.095,155.148z"/>
	<path class="st1" d="M681.657,159.069v-5.43h1.657v5.363c0,1.751,0.902,2.681,2.385,2.681c1.469,0,2.371-0.876,2.371-2.614v-5.43
		h1.657v5.349c0,2.816-1.59,4.231-4.056,4.231C683.22,163.219,681.657,161.804,681.657,159.069z"/>
	<path class="st1" d="M692.203,161.696l0.997-1.186c0.903,0.782,1.819,1.226,2.978,1.226c1.024,0,1.671-0.485,1.671-1.186v-0.027
		c0-0.674-0.377-1.038-2.129-1.442c-2.007-0.485-3.139-1.078-3.139-2.816v-0.027c0-1.617,1.347-2.735,3.22-2.735
		c1.374,0,2.466,0.418,3.422,1.186l-0.889,1.253c-0.849-0.633-1.698-0.97-2.561-0.97c-0.97,0-1.535,0.499-1.535,1.118v0.027
		c0,0.728,0.431,1.051,2.25,1.482c1.994,0.485,3.018,1.199,3.018,2.762v0.027c0,1.765-1.388,2.816-3.368,2.816
		C694.696,163.205,693.335,162.707,692.203,161.696z"/>
	<path class="st1" d="M704.408,155.175h-2.991v-1.536h7.653v1.536h-2.991v7.896h-1.671L704.408,155.175L704.408,155.175z"/>
	<path class="st1" d="M711.653,153.639h4.203c1.186,0,2.115,0.351,2.722,0.943c0.499,0.512,0.782,1.212,0.782,2.035v0.027
		c0,1.549-0.93,2.479-2.237,2.856l2.547,3.57h-1.967l-2.318-3.288h-2.074v3.288h-1.657v-9.431H711.653z M715.735,158.314
		c1.186,0,1.94-0.62,1.94-1.576v-0.027c0-1.011-0.728-1.563-1.954-1.563h-2.411v3.166H715.735z"/>
	<path class="st1" d="M722.32,153.639h1.657v9.432h-1.657V153.639z"/>
	<path class="st1" d="M730.672,153.571h1.536l4.15,9.499h-1.752l-0.957-2.277h-4.459l-0.971,2.277h-1.697L730.672,153.571z
		 M733.044,159.325l-1.631-3.772l-1.616,3.772H733.044z"/>
	<path class="st1" d="M738.808,153.639h1.657v7.923h4.958v1.509h-6.615V153.639z"/>
	<path class="st1" d="M657.198,169.734h1.536l4.15,9.499h-1.752l-0.957-2.277h-4.459l-0.971,2.277h-1.697L657.198,169.734z
		 M659.57,175.488l-1.631-3.772l-1.616,3.772H659.57z"/>
	<path class="st1" d="M665.333,169.802h3.719c2.209,0,3.584,1.253,3.584,3.153v0.027c0,2.116-1.698,3.22-3.772,3.22h-1.873v3.032
		h-1.657v-9.432H665.333z M668.917,174.706c1.253,0,2.034-0.7,2.034-1.684v-0.027c0-1.105-0.795-1.684-2.034-1.684h-1.927v3.395
		H668.917z"/>
	<path class="st1" d="M675.166,169.802h3.719c2.209,0,3.584,1.253,3.584,3.153v0.027c0,2.116-1.698,3.22-3.773,3.22h-1.872v3.032
		h-1.657L675.166,169.802L675.166,169.802z M678.75,174.706c1.253,0,2.034-0.7,2.034-1.684v-0.027c0-1.105-0.795-1.684-2.034-1.684
		h-1.927v3.395H678.75z"/>
	<path class="st1" d="M684.364,177.859l0.997-1.186c0.903,0.782,1.819,1.226,2.978,1.226c1.024,0,1.671-0.485,1.671-1.186v-0.027
		c0-0.674-0.377-1.038-2.129-1.442c-2.007-0.485-3.139-1.078-3.139-2.816v-0.027c0-1.617,1.347-2.735,3.22-2.735
		c1.374,0,2.466,0.418,3.422,1.186l-0.889,1.253c-0.849-0.633-1.698-0.97-2.561-0.97c-0.97,0-1.535,0.499-1.535,1.118v0.027
		c0,0.728,0.431,1.051,2.25,1.482c1.994,0.485,3.018,1.199,3.018,2.762v0.027c0,1.765-1.388,2.816-3.368,2.816
		C686.857,179.368,685.496,178.87,684.364,177.859z"/>
</g>
<g>
	<path class="st1" d="M557.732,57.789h1.536l5.052,6.521v-6.521h1.631v9.432h-1.388l-5.201-6.71v6.71h-1.63V57.789z"/>
	<path class="st1" d="M569.208,57.789h6.992v1.482h-5.335v2.452h4.729v1.482h-4.729v2.533h5.402v1.482h-7.06v-9.431H569.208z"/>
	<path class="st1" d="M581.385,59.325h-2.991v-1.536h7.653v1.536h-2.991v7.896h-1.671L581.385,59.325L581.385,59.325z"/>
	<path class="st1" d="M587.903,57.789h1.792l2.25,6.993l2.317-7.02h1.401l2.317,7.02l2.25-6.993h1.738l-3.274,9.499h-1.441
		l-2.317-6.777l-2.317,6.777h-1.429L587.903,57.789z"/>
	<path class="st1" d="M603.555,62.532v-0.027c0-2.654,2.048-4.877,4.944-4.877c2.897,0,4.918,2.196,4.918,4.851v0.027
		c0,2.654-2.048,4.877-4.944,4.877S603.555,65.186,603.555,62.532z M611.68,62.532v-0.027c0-1.833-1.334-3.355-3.207-3.355
		s-3.18,1.496-3.18,3.328v0.027c0,1.833,1.334,3.341,3.206,3.341C610.372,65.846,611.68,64.364,611.68,62.532z"/>
	<path class="st1" d="M616.256,57.789h4.203c1.186,0,2.115,0.351,2.722,0.943c0.499,0.512,0.782,1.212,0.782,2.035v0.027
		c0,1.549-0.93,2.479-2.237,2.856l2.547,3.57h-1.967l-2.318-3.288h-2.074v3.288h-1.657v-9.431H616.256z M620.338,62.464
		c1.186,0,1.94-0.62,1.94-1.576v-0.027c0-1.011-0.728-1.563-1.954-1.563h-2.411v3.166H620.338z"/>
	<path class="st1" d="M626.829,57.789h1.657v4.743l4.486-4.743h2.048l-3.934,4.056l4.109,5.376h-2.021l-3.22-4.244l-1.469,1.509
		v2.735h-1.657L626.829,57.789L626.829,57.789z"/>
	<path class="st1" d="M641.901,62.532v-0.027c0-2.681,2.008-4.877,4.864-4.877c1.737,0,2.789,0.606,3.691,1.469l-1.064,1.226
		c-0.755-0.701-1.562-1.172-2.641-1.172c-1.792,0-3.112,1.482-3.112,3.328v0.027c0,1.846,1.307,3.341,3.112,3.341
		c1.158,0,1.899-0.458,2.708-1.212l1.064,1.078c-0.983,1.024-2.062,1.67-3.826,1.67C643.949,67.382,641.901,65.24,641.901,62.532z"
		/>
	<path class="st1" d="M653.095,57.789h6.992v1.482h-5.335v2.452h4.729v1.482h-4.729v2.533h5.402v1.482h-7.06v-9.431H653.095z"/>
	<path class="st1" d="M662.954,57.789h1.536l5.052,6.521v-6.521h1.631v9.432h-1.388l-5.201-6.71v6.71h-1.63V57.789z"/>
	<path class="st1" d="M676.747,59.325h-2.991v-1.536h7.652v1.536h-2.99v7.896h-1.671L676.747,59.325L676.747,59.325z"/>
	<path class="st1" d="M683.992,57.789h4.203c1.186,0,2.115,0.351,2.722,0.943c0.499,0.512,0.782,1.212,0.782,2.035v0.027
		c0,1.549-0.93,2.479-2.237,2.856l2.547,3.57h-1.967l-2.318-3.288h-2.074v3.288h-1.657v-9.431H683.992z M688.074,62.464
		c1.186,0,1.94-0.62,1.94-1.576v-0.027c0-1.011-0.728-1.563-1.954-1.563h-2.411v3.166H688.074z"/>
	<path class="st1" d="M694.66,57.789h1.657v9.432h-1.657V57.789z"/>
	<path class="st1" d="M699.253,62.532v-0.027c0-2.681,2.008-4.877,4.864-4.877c1.737,0,2.789,0.606,3.691,1.469l-1.064,1.226
		c-0.755-0.701-1.562-1.172-2.641-1.172c-1.792,0-3.112,1.482-3.112,3.328v0.027c0,1.846,1.307,3.341,3.112,3.341
		c1.158,0,1.899-0.458,2.708-1.212l1.064,1.078c-0.983,1.024-2.062,1.67-3.826,1.67C701.301,67.382,699.253,65.24,699.253,62.532z"
		/>
</g>
<g>
	<g>
		<path class="st2" d="M356.153,212.261h3.111v14.142h-3.111V212.261z"/>
		<path class="st2" d="M362.801,212.261h2.869l6.626,8.707v-8.707h3.071v14.142h-2.646l-6.849-8.99v8.99h-3.07v-14.142H362.801z"/>
		<path class="st2" d="M378.762,212.261h5.515c4.444,0,7.515,3.05,7.515,7.03v0.041c0,3.98-3.071,7.071-7.515,7.071h-5.515V212.261z
			 M381.873,215.069v8.525h2.404c2.545,0,4.263-1.717,4.263-4.222v-0.041c0-2.505-1.717-4.263-4.263-4.263h-2.404V215.069z"/>
		<path class="st2" d="M394.338,220.342v-8.081h3.111v8c0,2.303,1.152,3.495,3.051,3.495s3.05-1.151,3.05-3.394v-8.101h3.111v7.98
			c0,4.283-2.404,6.384-6.202,6.384S394.338,224.503,394.338,220.342z"/>
		<path class="st2" d="M408.865,224.342l1.838-2.202c1.273,1.05,2.606,1.717,4.222,1.717c1.272,0,2.04-0.505,2.04-1.333v-0.041
			c0-0.788-0.484-1.192-2.849-1.798c-2.848-0.728-4.687-1.515-4.687-4.323v-0.041c0-2.566,2.061-4.263,4.949-4.263
			c2.062,0,3.818,0.646,5.253,1.798l-1.616,2.344c-1.252-0.869-2.484-1.394-3.677-1.394c-1.191,0-1.818,0.545-1.818,1.232v0.04
			c0,0.93,0.606,1.232,3.051,1.859c2.869,0.748,4.485,1.778,4.485,4.243v0.04c0,2.808-2.142,4.384-5.192,4.384
			C412.724,226.604,410.562,225.857,408.865,224.342z"/>
		<path class="st2" d="M425.756,215.129h-4.304v-2.869h11.718v2.869h-4.303v11.273h-3.111V215.129z"/>
		<path class="st2" d="M435.555,212.261h6.465c1.798,0,3.191,0.505,4.121,1.434c0.788,0.788,1.212,1.899,1.212,3.232v0.041
			c0,2.283-1.232,3.717-3.03,4.384l3.455,5.051h-3.637l-3.03-4.525h-2.444v4.525h-3.111v-14.142H435.555z M441.817,219.129
			c1.515,0,2.384-0.808,2.384-2v-0.041c0-1.333-0.93-2.02-2.444-2.02h-3.091v4.061H441.817z"/>
		<path class="st2" d="M453.637,220.826l-5.435-8.565h3.637l3.374,5.677l3.435-5.677h3.535l-5.435,8.505v5.637h-3.111V220.826z"/>
	</g>
	<g>
		<path class="st2" d="M385.037,273.919h-22.833l-2.155-9.227l24.449-29.096h13.201v28.558h5.995v9.766h-5.995v9.16h-12.662V273.919
			z M385.037,264.221v-13.538l-11.248,13.538H385.037z"/>
		<path class="st2" d="M404.33,276.512h6.667v6.567h-6.667V276.512z"/>
		<path class="st2" d="M411.165,259.641v-0.135c0-13.336,8.486-24.516,21.89-24.516s21.755,11.045,21.755,24.381v0.135
			c0,13.336-8.419,24.516-21.89,24.516S411.165,272.976,411.165,259.641z M441.676,259.641v-0.135
			c0-7.476-3.569-12.932-8.756-12.932c-5.186,0-8.621,5.253-8.621,12.797v0.135c0,7.543,3.502,12.932,8.756,12.932
			S441.676,267.117,441.676,259.641z"/>
	</g>
</g>
<g>
	<path class="st1" d="M213.299,325.85v11.113h-7.011V325.85H213.299 M214.422,323.605h-9.256c-0.62,0-1.122,0.503-1.122,1.122
		v13.358c0,0.62,0.503,1.122,1.122,1.122h9.256c0.62,0,1.122-0.503,1.122-1.122v-13.358
		C215.544,324.108,215.041,323.605,214.422,323.605L214.422,323.605z"/>
	<path class="st1" d="M247.498,320.326v16.637h-7.011v-16.637H247.498 M248.621,318.082h-9.256c-0.62,0-1.122,0.503-1.122,1.122
		v18.882c0,0.62,0.503,1.122,1.122,1.122h9.256c0.62,0,1.122-0.503,1.122-1.122v-18.882
		C249.743,318.584,249.241,318.082,248.621,318.082L248.621,318.082z"/>
	<path class="st1" d="M264.595,308.632v28.332h-7.004v-28.332H264.595 M265.717,306.387h-9.249c-0.62,0-1.122,0.503-1.122,1.122
		v30.577c0,0.62,0.503,1.122,1.122,1.122h9.249c0.62,0,1.122-0.503,1.122-1.122v-30.577
		C266.84,306.889,266.337,306.387,265.717,306.387L265.717,306.387z"/>
	<path class="st1" d="M230.399,314.014v22.95h-7.011v-22.95H230.399 M231.521,311.769h-9.256c-0.62,0-1.122,0.503-1.122,1.122
		v25.194c0,0.62,0.503,1.122,1.122,1.122h9.256c0.62,0,1.122-0.503,1.122-1.122v-25.194
		C232.644,312.272,232.141,311.769,231.521,311.769L231.521,311.769z"/>
	
		<rect x="211.123" y="297.844" transform="matrix(0.7656 -0.6433 0.6433 0.7656 -141.0677 210.7609)" class="st1" width="15.136" height="2.245"/>
	
		<rect x="234.747" y="291.956" transform="matrix(0.5451 -0.8383 0.8383 0.5451 -142.2505 333.1349)" class="st1" width="2.245" height="11.4"/>
	
		<rect x="244.915" y="291.054" transform="matrix(0.6438 -0.7652 0.7652 0.6438 -133.4855 297.5981)" class="st1" width="15.986" height="2.245"/>
	<path class="st1" d="M209.794,303.091c1.962,0,3.558,1.596,3.558,3.558s-1.596,3.558-3.558,3.558s-3.558-1.596-3.558-3.558
		C206.236,304.686,207.832,303.091,209.794,303.091 M209.794,300.846c-3.205,0-5.802,2.598-5.802,5.802s2.598,5.802,5.802,5.802
		c3.205,0,5.802-2.598,5.802-5.802S212.998,300.846,209.794,300.846L209.794,300.846z"/>
	<path class="st1" d="M245.2,298.613c1.962,0,3.558,1.596,3.558,3.558s-1.596,3.558-3.558,3.558s-3.558-1.596-3.558-3.558
		C241.643,300.209,243.239,298.613,245.2,298.613 M245.2,296.368c-3.205,0-5.802,2.598-5.802,5.802c0,3.205,2.598,5.802,5.802,5.802
		c3.205,0,5.802-2.598,5.802-5.802C251.003,298.966,248.405,296.368,245.2,296.368L245.2,296.368z"/>
	<path class="st1" d="M261.109,279.162c1.962,0,3.558,1.596,3.558,3.558s-1.596,3.558-3.558,3.558s-3.558-1.596-3.558-3.558
		C257.552,280.758,259.148,279.162,261.109,279.162 M261.109,276.917c-3.205,0-5.802,2.598-5.802,5.802
		c0,3.205,2.598,5.802,5.802,5.802c3.205,0,5.802-2.598,5.802-5.802C266.912,279.515,264.314,276.917,261.109,276.917
		L261.109,276.917z"/>
	<path class="st1" d="M227.6,288.312c1.962,0,3.558,1.596,3.558,3.558s-1.596,3.558-3.558,3.558s-3.558-1.596-3.558-3.558
		C224.043,289.908,225.638,288.312,227.6,288.312 M227.6,286.067c-3.205,0-5.802,2.598-5.802,5.802s2.598,5.802,5.802,5.802
		c3.205,0,5.802-2.598,5.802-5.802S230.805,286.067,227.6,286.067L227.6,286.067z"/>
</g>
<g>
	<path class="st1" d="M597.268,141.699c0.043,0,0.078,0.035,0.078,0.078v62.7c0,0.043-0.035,0.078-0.078,0.078H562.29
		c-0.043,0-0.078-0.035-0.078-0.078v-62.7c0-0.043,0.035-0.078,0.078-0.078H597.268 M597.268,139.454H562.29
		c-1.283,0-2.323,1.04-2.323,2.323v62.7c0,1.283,1.04,2.323,2.323,2.323h34.978c1.283,0,2.323-1.04,2.323-2.323v-62.7
		C599.591,140.494,598.551,139.454,597.268,139.454L597.268,139.454z"/>
	<g>
		<path class="st1" d="M583.161,146.746h-6.765c-0.62,0-1.122-0.502-1.122-1.123s0.502-1.123,1.122-1.123h6.765
			c0.62,0,1.122,0.502,1.122,1.123S583.781,146.746,583.161,146.746z"/>
	</g>
	<circle class="st1" cx="579.779" cy="201.491" r="1.29"/>
	<path class="st1" d="M595.742,198.414h-31.755v-49.697h31.755V198.414z M566.231,196.168h27.267v-45.207h-27.267V196.168z"/>
</g>
<g>
	<rect x="239.062" y="164.537" class="st1" width="2.245" height="22.475"/>
	<path class="st1" d="M240.204,154.272c2.57,0,4.661,2.091,4.661,4.661s-2.091,4.661-4.661,4.661s-4.661-2.091-4.661-4.661
		S237.634,154.272,240.204,154.272 M240.204,152.027c-3.814,0-6.906,3.092-6.906,6.906c0,3.814,3.092,6.906,6.906,6.906
		c3.814,0,6.906-3.092,6.906-6.906C247.109,155.119,244.018,152.027,240.204,152.027L240.204,152.027z"/>
	<path class="st1" d="M249.051,169.725c-0.304,0-0.607-0.123-0.829-0.365c-0.418-0.457-0.387-1.167,0.07-1.586
		c2.485-2.274,3.91-5.497,3.91-8.842c0-3.678-1.653-7.102-4.535-9.395c-0.485-0.386-0.565-1.092-0.18-1.577
		c0.386-0.485,1.093-0.564,1.577-0.18c3.42,2.721,5.382,6.786,5.382,11.152c0,3.973-1.691,7.799-4.639,10.498
		C249.593,169.627,249.321,169.725,249.051,169.725z"/>
	<path class="st1" d="M231.182,169.566c-0.278,0-0.556-0.103-0.772-0.309c-2.869-2.723-4.449-6.389-4.449-10.325
		c0-4.425,2.005-8.524,5.502-11.246c0.49-0.381,1.195-0.292,1.575,0.196c0.381,0.489,0.293,1.194-0.196,1.575
		c-2.946,2.293-4.636,5.747-4.636,9.474c0,3.313,1.332,6.402,3.749,8.697c0.45,0.427,0.468,1.137,0.042,1.586
		C231.775,169.449,231.479,169.566,231.182,169.566z"/>
	<path class="st1" d="M228.508,176.522c-0.225,0-0.452-0.067-0.65-0.208c-5.629-4.005-8.99-10.503-8.99-17.381
		c0-7.413,3.759-14.185,10.056-18.113c0.526-0.329,1.217-0.168,1.546,0.358c0.328,0.526,0.168,1.218-0.358,1.546
		c-5.635,3.516-9,9.576-9,16.209c0,6.153,3.008,11.967,8.046,15.552c0.505,0.359,0.623,1.06,0.264,1.565
		C229.205,176.358,228.859,176.522,228.508,176.522z"/>
	<path class="st1" d="M251.753,176.631c-0.354,0-0.703-0.167-0.921-0.48c-0.355-0.508-0.23-1.208,0.278-1.563
		c5.125-3.577,8.185-9.43,8.185-15.656c0-6.352-3.146-12.27-8.417-15.831c-0.514-0.347-0.649-1.045-0.302-1.559
		c0.347-0.513,1.044-0.648,1.559-0.302c5.89,3.979,9.406,10.592,9.406,17.691c0,6.959-3.418,13.5-9.145,17.497
		C252.199,176.566,251.975,176.631,251.753,176.631z"/>
	<path class="st1" d="M256.459,206.094h-32.551c-0.62,0-1.123-0.502-1.123-1.123v-17.959c0-0.62,0.502-1.123,1.123-1.123h32.551
		c0.62,0,1.123,0.502,1.123,1.123v17.959C257.582,205.591,257.08,206.094,256.459,206.094z M225.031,203.849h30.306v-15.714h-30.306
		V203.849z"/>
	<circle class="st1" cx="231.766" cy="195.992" r="2.245"/>
	<circle class="st1" cx="240.184" cy="195.992" r="2.245"/>
	<circle class="st1" cx="248.602" cy="195.992" r="2.245"/>
</g>
<g>
	<g>
		<circle class="st2" cx="339.932" cy="409.274" r="61.587"/>
	</g>
	<g>
		<circle class="st2" cx="479.874" cy="409.274" r="61.587"/>
	</g>
	<g>
		<path class="st3" d="M353.619,419.683l-1.877-1.084l13.33-23.087c1.112-1.925,0.45-4.397-1.476-5.509l-15.622-9.019
			c-0.933-0.539-2.019-0.682-3.061-0.403c-1.04,0.279-1.91,0.946-2.448,1.878c-0.539,0.934-0.682,2.02-0.403,3.061
			s0.946,1.91,1.879,2.448l10.132,5.85l-12.311,21.324l-1.877-1.084l11.228-19.447l-8.255-4.766
			c-1.434-0.828-2.46-2.165-2.889-3.764c-0.429-1.6-0.208-3.271,0.62-4.705s2.165-2.459,3.764-2.888s3.271-0.208,4.705,0.619
			l15.622,9.019c2.96,1.709,3.978,5.509,2.27,8.469L353.619,419.683z"/>
		<path class="st3" d="M360.708,440.174H325.04v-6.541h10.265c-2.166-1.768-3.552-4.458-3.552-7.467c0-5.311,4.32-9.631,9.63-9.631
			c3.362,0,6.442,1.731,8.19,4.56h11.134c3.011,0,5.461,2.448,5.461,5.457v8.165C366.169,437.726,363.719,440.174,360.708,440.174z
			 M327.207,438.006h33.501c1.816,0,3.294-1.476,3.294-3.289v-8.165c0-1.813-1.478-3.289-3.294-3.289h-12.416l-0.305-0.579
			c-1.294-2.455-3.825-3.98-6.604-3.98c-4.115,0-7.463,3.348-7.463,7.463c0,4.117,3.348,7.467,7.463,7.467v2.168h-14.177v2.204
			H327.207z"/>
		<path class="st3" d="M308.878,414.694c-1.847,0-3.687-0.579-5.236-1.723l-1.331-0.983l6.283-3.628l-2.003-3.469l-6.282,3.627
			l-0.186-1.644c-0.394-3.484,1.314-6.869,4.352-8.623c2.485-1.437,5.527-1.569,8.136-0.353l-0.916,1.964
			c-1.966-0.917-4.26-0.818-6.136,0.266c-1.769,1.021-2.939,2.774-3.245,4.729l5.071-2.928l4.17,7.223l-5.071,2.929
			c1.845,0.711,3.949,0.576,5.718-0.445c1.876-1.083,3.109-3.02,3.298-5.182l2.159,0.189c-0.251,2.865-1.886,5.433-4.374,6.869
			C311.916,414.304,310.394,414.694,308.878,414.694z"/>
		<path class="st3" d="M317.819,397.816l-2.093-0.562l1.778-6.628l10.141-5.855c0.929-0.537,2.125-0.217,2.663,0.712l0.376,0.65
			l6.676-3.854l1.083,1.877l-8.55,4.936l-1.352-2.336l-9.177,5.298L317.819,397.816z"/>
		<path class="st3" d="M326.402,406.043l-6.628-1.775l0.561-2.094l5.762,1.543l9.179-5.297l-1.352-2.34l8.457-4.883l1.084,1.877
			l-6.58,3.799l0.376,0.651c0.26,0.451,0.33,0.977,0.195,1.48c-0.135,0.503-0.458,0.924-0.909,1.185L326.402,406.043z"/>
		
			<rect x="323.746" y="393.648" transform="matrix(0.866 -0.5 0.5 0.866 -154.807 215.5614)" class="st3" width="2.167" height="5.998"/>
		
			<rect x="327.526" y="391.466" transform="matrix(0.866 -0.5 0.5 0.866 -153.2093 217.159)" class="st3" width="2.167" height="5.998"/>
		<path class="st3" d="M315.581,407.746c-0.497,0-0.997-0.065-1.49-0.197c-1.477-0.396-2.712-1.343-3.477-2.667
			c-1.578-2.734-0.638-6.242,2.095-7.821c2.734-1.578,6.243-0.639,7.821,2.096l0,0c0.765,1.324,0.968,2.867,0.572,4.345
			c-0.396,1.477-1.343,2.711-2.667,3.476C317.552,407.486,316.573,407.746,315.581,407.746z M315.566,398.459
			c-0.617,0-1.225,0.162-1.774,0.479c-1.698,0.981-2.283,3.161-1.302,4.86c0.475,0.823,1.242,1.412,2.16,1.658
			c0.917,0.246,1.877,0.12,2.7-0.356c0.823-0.475,1.412-1.242,1.658-2.16s0.12-1.877-0.355-2.699l0,0
			c-0.475-0.823-1.242-1.412-2.16-1.658C316.187,398.5,315.875,398.459,315.566,398.459z"/>
		<path class="st3" d="M315.572,403.753c-0.956,0-1.733-0.778-1.733-1.734c0-0.955,0.778-1.733,1.733-1.733s1.733,0.778,1.733,1.733
			C317.305,402.975,316.527,403.753,315.572,403.753z M315.572,401.585c-0.239,0-0.434,0.194-0.434,0.434s0.194,0.435,0.434,0.435
			s0.434-0.195,0.434-0.435S315.811,401.585,315.572,401.585z"/>
		<path class="st3" d="M345.958,386.209c-0.956,0-1.734-0.778-1.734-1.734s0.778-1.733,1.734-1.733s1.733,0.778,1.733,1.733
			C347.691,385.432,346.913,386.209,345.958,386.209z M345.958,384.042c-0.239,0-0.434,0.194-0.434,0.433s0.194,0.434,0.434,0.434
			c0.239,0,0.433-0.194,0.433-0.434C346.391,384.237,346.196,384.042,345.958,384.042z"/>
		
			<rect x="356.641" y="405.318" transform="matrix(0.4999 -0.8661 0.8661 0.4999 -173.6014 513.3668)" class="st3" width="2.167" height="3.375"/>
		
			<rect x="354.115" y="409.692" transform="matrix(0.4999 -0.8661 0.8661 0.4999 -178.6534 513.3669)" class="st3" width="2.167" height="3.375"/>
		
			<rect x="351.588" y="414.129" transform="matrix(0.5002 -0.8659 0.8659 0.5002 -183.7958 513.2045)" class="st3" width="2.167" height="3.376"/>
		<polygon class="st3" points="348.205,416.734 346.328,415.65 354.487,401.519 363.341,399.144 363.902,401.237 355.915,403.38 		
			"/>
		<rect x="341.383" y="433.633" class="st3" width="17.367" height="2.168"/>
		<path class="st3" d="M340.06,423.369l-0.915-1.965c1.41-0.656,3.067-0.656,4.476,0l-0.915,1.965
			C341.874,422.98,340.893,422.98,340.06,423.369z"/>
		<path class="st3" d="M336.126,426.852c-0.095-0.77-0.021-1.538,0.22-2.282c0.242-0.743,0.633-1.408,1.163-1.977l1.585,1.479
			c-0.313,0.335-0.544,0.728-0.687,1.168s-0.187,0.894-0.131,1.347L336.126,426.852z"/>
		<path class="st3" d="M340.372,431.405c-0.763-0.148-1.47-0.457-2.102-0.915c-0.632-0.46-1.144-1.038-1.52-1.718l1.896-1.049
			c0.221,0.4,0.523,0.741,0.898,1.013c0.373,0.271,0.791,0.454,1.242,0.542L340.372,431.405z"/>
		<path class="st3" d="M342.395,431.405l-0.415-2.127c0.451-0.088,0.869-0.271,1.242-0.542c0.375-0.271,0.676-0.612,0.898-1.013
			l1.896,1.049c-0.376,0.681-0.888,1.259-1.521,1.718C343.865,430.948,343.158,431.257,342.395,431.405z"/>
		<path class="st3" d="M346.64,426.852l-2.15-0.266c0.056-0.454,0.012-0.907-0.131-1.347c-0.144-0.44-0.374-0.833-0.687-1.168
			l1.584-1.479c0.53,0.567,0.921,1.232,1.163,1.977C346.662,425.312,346.736,426.08,346.64,426.852z"/>
	</g>
	<g>
		<g>
			<path class="st1" d="M463.127,414.31c-2.901,0-5.829-1.582-5.829-5.118c0-2.822,2.197-5.118,4.897-5.118v2.244
				c-1.463,0-2.653,1.289-2.653,2.874c0,2.666,2.744,2.874,3.585,2.874L463.127,414.31L463.127,414.31z"/>
			<path class="st1" d="M499.582,414.31v-2.244c0.371,0,3.623-0.081,3.623-2.874c0-1.585-1.19-2.874-2.653-2.874v-2.244
				c2.7,0,4.897,2.296,4.897,5.118C505.449,412.708,502.408,414.31,499.582,414.31z"/>
		</g>
		<path class="st1" d="M449.893,440.402c-0.022-1.376,0.015-8.317,2.953-9.811c2.492-1.265,19.44-7.536,20.16-7.803l0.779,2.105
			c-6.06,2.241-18.021,6.733-19.923,7.699c-1.096,0.557-1.777,4.468-1.726,7.772L449.893,440.402z"/>
		<path class="st1" d="M512.854,440.402l-2.244-0.036c0.052-3.305-0.63-7.216-1.727-7.772c-1.9-0.966-13.862-5.458-19.922-7.699
			l0.779-2.105c0.72,0.267,17.668,6.538,20.159,7.803C512.84,432.085,512.877,439.026,512.854,440.402z"/>
		<path class="st1" d="M481.354,427.487c-10.67,0-19.35-9.155-19.35-20.409v-5.405h2.244v5.405c0,10.016,7.674,18.165,17.105,18.165
			s17.105-8.149,17.105-18.165v-5.405h2.244v5.405C500.704,418.332,492.024,427.487,481.354,427.487z"/>
		<path class="st1" d="M490.412,391.312h-2.244v-17.04h-12.383v16.796h-2.244V373.15c0-0.62,0.502-1.123,1.122-1.123h14.627
			c0.62,0,1.122,0.502,1.122,1.123L490.412,391.312L490.412,391.312z"/>
		<path class="st1" d="M481.977,399.535c-4.527,0-8.211-3.684-8.211-8.211s3.684-8.211,8.211-8.211s8.211,3.684,8.211,8.211
			S486.504,399.535,481.977,399.535z M481.977,385.133c-3.414,0-6.191,2.777-6.191,6.19s2.777,6.191,6.191,6.191
			s6.191-2.777,6.191-6.191S485.391,385.133,481.977,385.133z"/>
		<path class="st1" d="M481.977,395.035c-2.047,0-3.711-1.665-3.711-3.712c0-2.046,1.664-3.711,3.711-3.711s3.711,1.665,3.711,3.711
			C485.688,393.37,484.023,395.035,481.977,395.035z M481.977,389.632c-0.933,0-1.691,0.758-1.691,1.691s0.759,1.691,1.691,1.691
			s1.691-0.759,1.691-1.691S482.909,389.632,481.977,389.632z"/>
		<path class="st1" d="M507.181,402.612h-50.408c-0.62,0-1.122-0.502-1.122-1.122v-5.388c0-0.543,0.389-1.008,0.923-1.104
			l5.479-0.987v-2.168c0-7.559,4.792-14.355,12.208-17.315l0.832,2.085c-6.558,2.618-10.796,8.596-10.796,15.23v3.106
			c0,0.543-0.389,1.008-0.923,1.104l-5.479,0.987v3.327h48.164v-3.359l-5.566-1.202c-0.343-0.074-0.632-0.305-0.78-0.623
			c-0.118-0.254-0.137-0.542-0.055-0.805v-2.536c0-6.681-4.278-12.675-10.899-15.271l0.82-2.09
			c7.486,2.936,12.323,9.75,12.323,17.36v1.971l5.517,1.191c0.517,0.112,0.885,0.568,0.885,1.097v5.388
			C508.303,402.11,507.801,402.612,507.181,402.612z"/>
		<rect x="462.507" y="391.057" class="st1" width="11.868" height="2.245"/>
		<rect x="489.113" y="391.057" class="st1" width="11.869" height="2.245"/>
		<path class="st1" d="M504.133,440.544h-2.244v-3.409h-40.548v3.409h-2.244v-4.531c0-0.62,0.502-1.122,1.122-1.122h42.792
			c0.62,0,1.122,0.502,1.122,1.122L504.133,440.544L504.133,440.544z"/>
		<rect x="461.39" y="427.365" class="st1" width="2.244" height="8.654"/>
		<rect x="467.628" y="425.388" class="st1" width="2.244" height="10.632"/>
		<rect x="492.798" y="424.894" class="st1" width="2.244" height="11.153"/>
		<rect x="499.035" y="427.6" class="st1" width="2.244" height="8.447"/>
		<circle class="st1" cx="473.328" cy="408.113" r="1.243"/>
		<circle class="st1" cx="489.576" cy="408.113" r="1.243"/>
		<path class="st1" d="M481.453,420.116c-1.621,0-3.022-0.628-3.767-1.165c-0.453-0.327-0.555-0.958-0.229-1.41
			c0.325-0.452,0.954-0.556,1.406-0.231l0,0c0.103,0.073,2.539,1.747,4.979,0.001c0.453-0.326,1.085-0.22,1.409,0.233
			c0.325,0.453,0.221,1.084-0.233,1.409C483.823,419.811,482.585,420.116,481.453,420.116z"/>
		<path class="st1" d="M481.316,431.864c-4.708,0-8.396-2.451-8.396-5.581v-1.351h2.244v1.351c0,1.578,2.526,3.337,6.151,3.337
			s6.151-1.759,6.151-3.337v-1.351h2.244v1.351C489.712,429.413,486.024,431.864,481.316,431.864z"/>
	</g>
	<g>
		<g>
			<circle class="st2" cx="339.932" cy="73.342" r="61.587"/>
		</g>
		<g>
			<circle class="st2" cx="479.874" cy="73.342" r="61.587"/>
		</g>
		<g>
			<path class="st1" d="M509.413,71.899c1.812,0,3.286,1.474,3.286,3.286c0,1.812-1.474,3.286-3.286,3.286s-3.286-1.474-3.286-3.286
				C506.126,73.373,507.6,71.899,509.413,71.899 M509.413,69.879c-2.931,0-5.307,2.376-5.307,5.307s2.376,5.307,5.307,5.307
				s5.307-2.376,5.307-5.307C514.719,72.255,512.343,69.879,509.413,69.879L509.413,69.879z"/>
			<path class="st1" d="M501.511,51.206c1.812,0,3.286,1.474,3.286,3.286s-1.474,3.286-3.286,3.286s-3.286-1.474-3.286-3.286
				S499.699,51.206,501.511,51.206 M501.511,49.185c-2.931,0-5.307,2.376-5.307,5.307s2.376,5.307,5.307,5.307
				s5.307-2.376,5.307-5.307S504.442,49.185,501.511,49.185L501.511,49.185z"/>
			<path class="st1" d="M460.14,51.206c1.812,0,3.286,1.474,3.286,3.286s-1.474,3.286-3.286,3.286s-3.286-1.474-3.286-3.286
				S458.328,51.206,460.14,51.206 M460.14,49.185c-2.931,0-5.307,2.376-5.307,5.307s2.376,5.307,5.307,5.307
				s5.307-2.376,5.307-5.307S463.071,49.185,460.14,49.185L460.14,49.185z"/>
			<path class="st1" d="M453.217,71.899c1.812,0,3.286,1.474,3.286,3.286c0,1.812-1.474,3.286-3.286,3.286s-3.286-1.474-3.286-3.286
				C449.93,73.373,451.405,71.899,453.217,71.899 M453.217,69.879c-2.931,0-5.307,2.376-5.307,5.307s2.376,5.307,5.307,5.307
				s5.307-2.376,5.307-5.307C458.523,72.255,456.148,69.879,453.217,69.879L453.217,69.879z"/>
			<rect x="480.388" y="51.3" class="st1" width="2.244" height="5.393"/>
			
				<rect x="464.359" y="56.832" transform="matrix(0.707 -0.7072 0.7072 0.707 93.8234 346.8247)" class="st1" width="2.246" height="6.696"/>
			
				<rect x="492.155" y="59.082" transform="matrix(0.7069 -0.7073 0.7073 0.7069 102.6452 368.1177)" class="st1" width="6.695" height="2.245"/>
			<path class="st1" d="M481.51,100.704c1.812,0,3.286,1.474,3.286,3.286s-1.474,3.286-3.286,3.286s-3.286-1.474-3.286-3.286
				S479.698,100.704,481.51,100.704 M481.51,98.684c-2.931,0-5.307,2.376-5.307,5.307s2.376,5.307,5.307,5.307
				s5.307-2.376,5.307-5.307S484.441,98.684,481.51,98.684L481.51,98.684z"/>
			<path class="st1" d="M481.51,43.633c1.812,0,3.286,1.474,3.286,3.286s-1.474,3.286-3.286,3.286s-3.286-1.474-3.286-3.286
				S479.698,43.633,481.51,43.633 M481.51,41.612c-2.931,0-5.307,2.376-5.307,5.307s2.376,5.307,5.307,5.307
				s5.307-2.376,5.307-5.307S484.441,41.612,481.51,41.612L481.51,41.612z"/>
			<path class="st1" d="M501.511,91.952c1.812,0,3.286,1.474,3.286,3.286c0,1.812-1.474,3.286-3.286,3.286s-3.286-1.474-3.286-3.286
				C498.225,93.427,499.699,91.952,501.511,91.952 M501.511,89.932c-2.931,0-5.307,2.376-5.307,5.307s2.376,5.307,5.307,5.307
				s5.307-2.376,5.307-5.307S504.442,89.932,501.511,89.932L501.511,89.932z"/>
			<path class="st1" d="M460.14,91.952c1.812,0,3.286,1.474,3.286,3.286c0,1.812-1.474,3.286-3.286,3.286s-3.286-1.474-3.286-3.286
				C456.854,93.427,458.328,91.952,460.14,91.952 M460.14,89.932c-2.931,0-5.307,2.376-5.307,5.307s2.376,5.307,5.307,5.307
				s5.307-2.376,5.307-5.307C465.447,92.308,463.071,89.932,460.14,89.932L460.14,89.932z"/>
			<rect x="480.388" y="93.039" class="st1" width="2.244" height="6.058"/>
			<g>
				<path class="st1" d="M481.108,57.683c9.651,0,17.502,7.851,17.502,17.502s-7.851,17.502-17.502,17.502
					s-17.502-7.851-17.502-17.502S471.458,57.683,481.108,57.683 M481.108,55.438c-10.906,0-19.747,8.841-19.747,19.747
					s8.841,19.747,19.747,19.747s19.747-8.841,19.747-19.747S492.014,55.438,481.108,55.438L481.108,55.438z"/>
				<path class="st1" d="M481.108,57.683c2.641,0,6.477,6.818,6.477,17.502s-3.836,17.502-6.477,17.502s-6.477-6.818-6.477-17.502
					S478.467,57.683,481.108,57.683 M481.108,55.438c-4.817,0-8.722,8.841-8.722,19.747s3.905,19.747,8.722,19.747
					s8.722-8.841,8.722-19.747C489.83,64.279,485.925,55.438,481.108,55.438L481.108,55.438z"/>
				<rect x="457.381" y="74.063" class="st1" width="47.563" height="2.245"/>
				<rect x="465.469" y="64.683" class="st1" width="30.865" height="2.245"/>
				<rect x="465.137" y="83.443" class="st1" width="31.861" height="2.245"/>
				
					<rect x="461.167" y="89.159" transform="matrix(0.7069 -0.7073 0.7073 0.7069 72.3392 355.1356)" class="st1" width="7.036" height="2.245"/>
			</g>
			
				<rect x="495.047" y="87.823" transform="matrix(0.7071 -0.7071 0.7071 0.7071 81.5319 377.2685)" class="st1" width="2.245" height="4.787"/>
		</g>
		<g>
			<polygon class="st3" points="344.509,57.073 341.936,54.5 341.936,46.046 359.411,46.046 359.411,54.359 357.232,54.359 
				357.232,48.225 344.115,48.225 344.115,53.598 346.049,55.533 			"/>
			<path class="st3" d="M357.093,81.507c-1.454,0-2.822-0.565-3.851-1.593c-1.031-1.029-1.6-2.397-1.601-3.854
				c-0.001-1.456,0.564-2.826,1.593-3.857c1.082-1.084,2.586-1.654,4.107-1.59l4.303-4.316l1.543,1.538l-5.056,5.07l-0.545-0.083
				c-1.044-0.156-2.07,0.177-2.811,0.919c-0.618,0.619-0.958,1.442-0.957,2.316s0.342,1.696,0.961,2.314
				c0.618,0.617,1.439,0.957,2.312,0.957c0.903,0.034,1.699-0.341,2.317-0.961c0.741-0.743,1.074-1.768,0.914-2.813l-0.083-0.544
				l8.697-8.723l1.543,1.538l-7.946,7.97c0.071,1.523-0.5,3.026-1.582,4.111c-1.028,1.031-2.397,1.599-3.854,1.601
				C357.097,81.507,357.095,81.507,357.093,81.507z"/>
			<path class="st3" d="M357.093,77.579c-0.39,0-0.78-0.148-1.077-0.444c-0.289-0.289-0.448-0.672-0.448-1.08
				s0.159-0.791,0.448-1.079c0.591-0.592,1.558-0.594,2.154-0.001c0.595,0.594,0.597,1.562,0.003,2.157
				C357.875,77.43,357.484,77.579,357.093,77.579z M357.093,75.401c-0.168,0-0.335,0.064-0.463,0.192
				c-0.254,0.255-0.253,0.67,0.001,0.924c0.255,0.254,0.669,0.254,0.925-0.001c0.12-0.12,0.19-0.289,0.19-0.461
				c0-0.173-0.07-0.341-0.192-0.463C357.427,75.465,357.26,75.401,357.093,75.401z"/>
			<path class="st3" d="M350.676,66.378c-1.853,0-3.698-0.711-5.093-2.106c-1.36-1.36-2.11-3.168-2.11-5.092
				c0-1.923,0.748-3.73,2.107-5.089c2.475-2.477,6.366-2.802,9.203-0.821l15.287,0.003v4.59h2.333
				c1.992,0.004,3.613,1.626,3.613,3.615s-1.621,3.611-3.613,3.615l-17.62-0.003C353.545,65.953,352.108,66.378,350.676,66.378z
				 M350.676,54.159c-1.293,0-2.582,0.497-3.557,1.472c-0.948,0.948-1.469,2.208-1.469,3.549c0,1.342,0.523,2.603,1.472,3.552
				c1.789,1.789,4.64,1.966,6.631,0.411l0.295-0.231l18.35,0.003c0.791-0.001,1.437-0.646,1.437-1.437s-0.646-1.435-1.439-1.437
				h-4.506V55.45l-13.841-0.003l-0.295-0.23C352.846,54.508,351.759,54.159,350.676,54.159z"/>
			<path class="st3" d="M351.309,58.073c-0.385-0.223-0.891-0.223-1.275,0l-1.092-1.885c1.047-0.606,2.412-0.606,3.459,0
				L351.309,58.073z"/>
			<path class="st3" d="M347.678,60.909c-0.303-0.523-0.463-1.122-0.463-1.729s0.16-1.205,0.463-1.729l1.886,1.09
				c-0.111,0.193-0.17,0.414-0.17,0.639s0.059,0.446,0.17,0.639L347.678,60.909z"/>
			<path class="st3" d="M350.671,62.636c-0.607,0-1.205-0.16-1.729-0.463l1.09-1.886c0.386,0.223,0.892,0.223,1.277,0l1.09,1.886
				C351.876,62.476,351.278,62.636,350.671,62.636z"/>
			<path class="st3" d="M353.664,60.91l-1.885-1.092c0.111-0.192,0.17-0.413,0.17-0.638s-0.059-0.445-0.17-0.638l1.885-1.092
				c0.303,0.523,0.464,1.122,0.464,1.729S353.967,60.386,353.664,60.91z"/>
			<rect x="357.675" y="57.835" class="st3" width="2.179" height="2.69"/>
			<rect x="362.419" y="57.835" class="st3" width="2.179" height="2.69"/>
			<rect x="356.003" y="80.417" class="st3" width="2.179" height="3.418"/>
			<path class="st3" d="M361.549,101.472h-7.47v-1.089c0-2.844-2.314-5.158-5.158-5.158c-2.845,0-5.159,2.314-5.159,5.158v1.089
				h-15.946v-1.089c0-2.844-2.314-5.158-5.158-5.158s-5.158,2.314-5.158,5.158v1.089h-7.469V89.958c0-2.297,1.869-4.166,4.165-4.166
				h2.242c1.347,0,3.23-0.948,4.031-2.03l2.905-3.92c1.208-1.633,3.749-2.913,5.782-2.913H342.7c2.033,0,4.573,1.28,5.782,2.913
				l2.903,3.919c0.801,1.082,2.685,2.03,4.032,2.03h1.965c2.297,0,4.166,1.869,4.166,4.166L361.549,101.472L361.549,101.472z
				 M356.177,99.293h3.193v-9.335c0-1.096-0.891-1.987-1.987-1.987h-1.965c-2.034,0-4.574-1.279-5.783-2.913l-2.903-3.919
				c-0.801-1.082-2.685-2.031-4.032-2.031h-13.545c-1.347,0-3.231,0.949-4.032,2.03l-2.905,3.92
				c-1.208,1.633-3.748,2.912-5.781,2.912h-2.242c-1.095,0-1.986,0.891-1.986,1.987v9.335h3.193c0.528-3.53,3.581-6.248,7.256-6.248
				s6.728,2.717,7.256,6.248h11.75c0.528-3.53,3.581-6.248,7.257-6.248C352.596,93.045,355.649,95.763,356.177,99.293z"/>
			<path class="st3" d="M338.953,97.115h-6.328c-0.604,0-1.143-0.34-1.408-0.886c-1.524-3.132-4.627-5.183-8.097-5.351
				c-0.675-0.033-1.238-0.47-1.436-1.112c-0.195-0.635,0.023-1.304,0.557-1.705c0.694-0.521,1.275-1.096,1.728-1.707l2.904-3.918
				c0.473-0.565,1.558-1.107,2.231-1.148l13.596-0.001v2.179h-13.455c-0.169,0.042-0.531,0.223-0.67,0.333l-2.855,3.853
				c-0.311,0.42-0.667,0.825-1.064,1.21c3.55,0.615,6.646,2.847,8.349,6.076h5.949L338.953,97.115L338.953,97.115z M333.176,95.275
				c0,0,0,0.001,0.001,0.001C333.176,95.276,333.176,95.276,333.176,95.275z"/>
			<rect x="321.626" y="46.046" class="st3" width="21.399" height="2.179"/>
		</g>
	</g>
</g>
<g>
	<path class="st1" d="M584.667,316.55c0.275,0,0.552,0.081,0.794,0.25c0.631,0.439,0.786,1.307,0.346,1.937l-9.158,13.142
		c-0.232,0.333-0.599,0.549-1.003,0.589c-0.046,0.005-0.092,0.007-0.138,0.007c-0.357,0-0.702-0.137-0.962-0.386l-7.013-6.705
		c-0.555-0.531-0.575-1.412-0.044-1.967c0.274-0.286,0.64-0.43,1.006-0.43c0.346,0,0.692,0.128,0.961,0.386l5.838,5.581
		l8.229-11.808C583.794,316.758,584.227,316.55,584.667,316.55 M584.667,314.529L584.667,314.529c-1.117,0-2.164,0.547-2.801,1.463
		l-6.88,9.872l-4.133-3.951c-0.637-0.61-1.474-0.946-2.357-0.946c-0.927,0-1.826,0.384-2.467,1.054
		c-0.63,0.658-0.966,1.523-0.945,2.434c0.02,0.911,0.395,1.76,1.053,2.389l7.013,6.705c0.636,0.61,1.474,0.946,2.358,0.946
		c0.111,0,0.223-0.006,0.334-0.017c0.996-0.098,1.893-0.625,2.465-1.444l9.158-13.142c1.076-1.544,0.695-3.674-0.849-4.75
		C586.043,314.742,585.368,314.529,584.667,314.529L584.667,314.529z"/>
	<path class="st1" d="M605.012,301.999v38.695h-56.669v-38.695H605.012 M605.012,299.754h-56.669c-1.24,0-2.245,1.005-2.245,2.245
		v38.695c0,1.24,1.005,2.245,2.245,2.245h56.669c1.24,0,2.245-1.005,2.245-2.245v-38.695
		C607.257,300.759,606.252,299.754,605.012,299.754L605.012,299.754z"/>
	<rect x="547.56" y="308.79" class="st1" width="58.647" height="2.245"/>
	<path class="st1" d="M553.662,306.451h-1.792c-0.62,0-1.122-0.502-1.122-1.123s0.502-1.123,1.122-1.123h1.792
		c0.62,0,1.122,0.502,1.122,1.123S554.282,306.451,553.662,306.451z"/>
	<path class="st1" d="M559.44,306.451h-1.793c-0.62,0-1.122-0.502-1.122-1.123s0.502-1.123,1.122-1.123h1.793
		c0.62,0,1.122,0.502,1.122,1.123S560.061,306.451,559.44,306.451z"/>
	<path class="st1" d="M565.218,306.451h-1.792c-0.62,0-1.122-0.502-1.122-1.123s0.502-1.123,1.122-1.123h1.792
		c0.62,0,1.122,0.502,1.122,1.123S565.838,306.451,565.218,306.451z"/>
	<path class="st1" d="M602.469,295.681h-51.583c-0.62,0-1.122-0.502-1.122-1.123s0.502-1.123,1.122-1.123h51.583
		c0.62,0,1.122,0.502,1.122,1.123S603.089,295.681,602.469,295.681z"/>
	<path class="st1" d="M599.345,289.18H554.01c-0.62,0-1.122-0.502-1.122-1.123s0.502-1.123,1.122-1.123h45.335
		c0.62,0,1.122,0.502,1.122,1.123S599.965,289.18,599.345,289.18z"/>
	<path class="st1" d="M595.917,282.679h-38.479c-0.62,0-1.122-0.502-1.122-1.123s0.502-1.123,1.122-1.123h38.479
		c0.62,0,1.122,0.502,1.122,1.123S596.537,282.679,595.917,282.679z"/>
</g>
<linearGradient id="Exclusion_12_1_" gradientUnits="userSpaceOnUse" x1="280.8617" y1="336.5233" x2="281.5267" y2="336.8013" gradientTransform="matrix(1920 0 0 -162 -539505 54369.5)">
	<stop  offset="0" style="stop-color:#00B4E5"/>
	<stop  offset="1" style="stop-color:#1CD0BB"/>
</linearGradient>
<path id="Exclusion_12_2_" class="st4" d="M-124.372-91.601h-368v-162h1920v162h-849.5H-124.372z"/>
<linearGradient id="SVGID_1_" gradientUnits="userSpaceOnUse" x1="173.521" y1="241.308" x2="646.093" y2="241.308">
	<stop  offset="0" style="stop-color:#00B4E5"/>
	<stop  offset="1" style="stop-color:#1CD0BB"/>
</linearGradient>
<path class="st5" d="M578.893,377.941c-37.055,0-67.2-30.146-67.2-67.2s30.146-67.2,67.2-67.2s67.2,30.146,67.2,67.2
	S615.947,377.941,578.893,377.941z M578.893,254.767c-30.865,0-55.976,25.11-55.976,55.975s25.11,55.975,55.976,55.975
	s55.976-25.11,55.976-55.975S609.758,254.767,578.893,254.767z M578.893,240.196c-37.055,0-67.2-30.146-67.2-67.2
	s30.146-67.2,67.2-67.2s67.2,30.146,67.2,67.2S615.947,240.196,578.893,240.196z M578.893,117.021
	c-30.865,0-55.976,25.11-55.976,55.976c0,30.865,25.11,55.975,55.976,55.975s55.976-25.11,55.976-55.975
	C634.868,142.131,609.758,117.021,578.893,117.021z M240.721,377.941c-37.054,0-67.2-30.146-67.2-67.2s30.146-67.2,67.2-67.2
	s67.2,30.146,67.2,67.2S277.775,377.941,240.721,377.941z M240.721,254.767c-30.865,0-55.975,25.11-55.975,55.975
	s25.11,55.975,55.975,55.975s55.975-25.11,55.975-55.975S271.586,254.767,240.721,254.767z M240.721,240.196
	c-37.054,0-67.2-30.146-67.2-67.2s30.146-67.2,67.2-67.2s67.2,30.146,67.2,67.2S277.775,240.196,240.721,240.196z M240.721,117.021
	c-30.865,0-55.975,25.11-55.975,55.976c0,30.865,25.11,55.975,55.975,55.975s55.975-25.11,55.975-55.975
	C296.696,142.131,271.586,117.021,240.721,117.021z M339.932,476.474c-37.054,0-67.2-30.146-67.2-67.2s30.146-67.199,67.2-67.199
	s67.2,30.146,67.2,67.199C407.132,446.328,376.986,476.474,339.932,476.474z M339.932,353.299c-30.865,0-55.975,25.11-55.975,55.975
	s25.11,55.976,55.975,55.976s55.975-25.11,55.975-55.976C395.907,378.409,370.797,353.299,339.932,353.299z M479.874,476.474
	c-37.054,0-67.199-30.146-67.199-67.2s30.146-67.199,67.199-67.199c37.055,0,67.2,30.146,67.2,67.199
	C547.074,446.328,516.929,476.474,479.874,476.474z M479.874,353.299c-30.864,0-55.975,25.11-55.975,55.975
	s25.11,55.976,55.975,55.976s55.976-25.11,55.976-55.976C535.85,378.409,510.739,353.299,479.874,353.299z M339.932,140.542
	c-37.054,0-67.2-30.146-67.2-67.2s30.146-67.2,67.2-67.2s67.2,30.146,67.2,67.2S376.986,140.542,339.932,140.542z M339.932,17.367
	c-30.865,0-55.975,25.11-55.975,55.975s25.11,55.976,55.975,55.976s55.975-25.11,55.975-55.976
	C395.907,42.477,370.797,17.367,339.932,17.367z M479.874,140.542c-37.054,0-67.199-30.146-67.199-67.2s30.146-67.2,67.199-67.2
	c37.055,0,67.2,30.146,67.2,67.2S516.929,140.542,479.874,140.542z M479.874,17.367c-30.864,0-55.975,25.11-55.975,55.975
	s25.11,55.976,55.975,55.976s55.976-25.11,55.976-55.976C535.85,42.477,510.739,17.367,479.874,17.367z"/>
</svg>
